G75*
%MOIN*%
%OFA0B0*%
%FSLAX25Y25*%
%IPPOS*%
%LPD*%
%AMOC8*
5,1,8,0,0,1.08239X$1,22.5*
%
%ADD10C,0.05709*%
%ADD11C,0.07400*%
%ADD12C,0.01600*%
%ADD13C,0.04000*%
%ADD14C,0.01000*%
D10*
X0023099Y0018729D03*
X0023099Y0038414D03*
D11*
X0039792Y0013611D03*
X0069792Y0013611D03*
X0080580Y0023375D03*
X0080580Y0033375D03*
D12*
X0012061Y0007222D02*
X0010611Y0007693D01*
X0009377Y0008590D01*
X0008481Y0009823D01*
X0008010Y0011274D01*
X0007950Y0012036D01*
X0007950Y0013790D01*
X0008604Y0012210D01*
X0009887Y0010927D01*
X0011562Y0010233D01*
X0013376Y0010233D01*
X0015052Y0010927D01*
X0016334Y0012210D01*
X0017028Y0013885D01*
X0017028Y0015699D01*
X0016334Y0017375D01*
X0015052Y0018657D01*
X0013376Y0019351D01*
X0011562Y0019351D01*
X0009887Y0018657D01*
X0008604Y0017375D01*
X0007950Y0015794D01*
X0007950Y0041349D01*
X0008604Y0039769D01*
X0009887Y0038486D01*
X0011562Y0037792D01*
X0013376Y0037792D01*
X0015052Y0038486D01*
X0016334Y0039769D01*
X0017028Y0041444D01*
X0017028Y0043258D01*
X0016334Y0044934D01*
X0015052Y0046216D01*
X0013376Y0046910D01*
X0011562Y0046910D01*
X0009887Y0046216D01*
X0008604Y0044934D01*
X0007950Y0043353D01*
X0007950Y0045894D01*
X0008010Y0046657D01*
X0008481Y0048107D01*
X0009377Y0049341D01*
X0010611Y0050237D01*
X0012061Y0050709D01*
X0012824Y0050769D01*
X0119123Y0050769D01*
X0119885Y0050709D01*
X0121336Y0050237D01*
X0122569Y0049341D01*
X0123466Y0048107D01*
X0123937Y0046657D01*
X0123997Y0045894D01*
X0123997Y0012036D01*
X0123937Y0011274D01*
X0123466Y0009823D01*
X0122569Y0008590D01*
X0121336Y0007693D01*
X0119885Y0007222D01*
X0119123Y0007162D01*
X0012824Y0007162D01*
X0012061Y0007222D01*
X0009348Y0008629D02*
X0037454Y0008629D01*
X0037681Y0008514D02*
X0038504Y0008246D01*
X0039359Y0008111D01*
X0039706Y0008111D01*
X0039706Y0013525D01*
X0034292Y0013525D01*
X0034292Y0013178D01*
X0034428Y0012323D01*
X0034695Y0011500D01*
X0035088Y0010728D01*
X0035597Y0010028D01*
X0036209Y0009416D01*
X0036909Y0008907D01*
X0037681Y0008514D01*
X0039706Y0008629D02*
X0039878Y0008629D01*
X0039878Y0008111D02*
X0040225Y0008111D01*
X0041080Y0008246D01*
X0041903Y0008514D01*
X0042675Y0008907D01*
X0043375Y0009416D01*
X0043987Y0010028D01*
X0044496Y0010728D01*
X0044889Y0011500D01*
X0045157Y0012323D01*
X0045292Y0013178D01*
X0045292Y0013525D01*
X0039878Y0013525D01*
X0039878Y0008111D01*
X0042130Y0008629D02*
X0067969Y0008629D01*
X0068738Y0008311D02*
X0066790Y0009118D01*
X0065299Y0010609D01*
X0064492Y0012557D01*
X0064492Y0014665D01*
X0064866Y0015567D01*
X0062674Y0017759D01*
X0057460Y0017759D01*
X0056509Y0016807D01*
X0055185Y0016259D01*
X0053753Y0016259D01*
X0052430Y0016807D01*
X0051417Y0017820D01*
X0050869Y0019143D01*
X0050869Y0020575D01*
X0051159Y0021275D01*
X0045005Y0021275D01*
X0042686Y0023594D01*
X0041340Y0023594D01*
X0040017Y0024142D01*
X0039004Y0025154D01*
X0038456Y0026478D01*
X0038456Y0027910D01*
X0039004Y0029233D01*
X0040017Y0030246D01*
X0041340Y0030794D01*
X0042772Y0030794D01*
X0044095Y0030246D01*
X0045108Y0029233D01*
X0045656Y0027910D01*
X0045656Y0026564D01*
X0046745Y0025475D01*
X0075713Y0025475D01*
X0076086Y0026377D01*
X0077577Y0027868D01*
X0078523Y0028260D01*
X0078468Y0028278D01*
X0077697Y0028671D01*
X0076997Y0029180D01*
X0076384Y0029792D01*
X0075876Y0030492D01*
X0075482Y0031264D01*
X0075215Y0032087D01*
X0075080Y0032942D01*
X0075080Y0033175D01*
X0080379Y0033175D01*
X0080379Y0033575D01*
X0075080Y0033575D01*
X0075080Y0033808D01*
X0075215Y0034663D01*
X0075482Y0035486D01*
X0075876Y0036257D01*
X0076384Y0036958D01*
X0076997Y0037570D01*
X0077697Y0038079D01*
X0078468Y0038472D01*
X0079292Y0038739D01*
X0080147Y0038875D01*
X0080380Y0038875D01*
X0080380Y0033575D01*
X0080780Y0033575D01*
X0086080Y0033575D01*
X0086080Y0033808D01*
X0085944Y0034663D01*
X0085677Y0035486D01*
X0085284Y0036257D01*
X0084775Y0036958D01*
X0084163Y0037570D01*
X0083462Y0038079D01*
X0082691Y0038472D01*
X0081867Y0038739D01*
X0081012Y0038875D01*
X0080780Y0038875D01*
X0080780Y0033575D01*
X0080780Y0033175D01*
X0086080Y0033175D01*
X0086080Y0032942D01*
X0085944Y0032087D01*
X0085677Y0031264D01*
X0085284Y0030492D01*
X0084775Y0029792D01*
X0084163Y0029180D01*
X0083462Y0028671D01*
X0082691Y0028278D01*
X0082636Y0028260D01*
X0083582Y0027868D01*
X0085073Y0026377D01*
X0085880Y0024429D01*
X0085880Y0022321D01*
X0085073Y0020373D01*
X0083582Y0018882D01*
X0081634Y0018075D01*
X0079525Y0018075D01*
X0077577Y0018882D01*
X0076086Y0020373D01*
X0075713Y0021275D01*
X0065098Y0021275D01*
X0067836Y0018537D01*
X0068738Y0018911D01*
X0070846Y0018911D01*
X0072794Y0018104D01*
X0074285Y0016613D01*
X0075092Y0014665D01*
X0075092Y0012557D01*
X0074285Y0010609D01*
X0072794Y0009118D01*
X0070846Y0008311D01*
X0068738Y0008311D01*
X0071615Y0008629D02*
X0122598Y0008629D01*
X0123597Y0010228D02*
X0073904Y0010228D01*
X0074790Y0011826D02*
X0123980Y0011826D01*
X0123997Y0013425D02*
X0075092Y0013425D01*
X0074944Y0015023D02*
X0123997Y0015023D01*
X0123997Y0016622D02*
X0074277Y0016622D01*
X0072513Y0018220D02*
X0079174Y0018220D01*
X0081985Y0018220D02*
X0123997Y0018220D01*
X0123997Y0019819D02*
X0084519Y0019819D01*
X0085505Y0021417D02*
X0123997Y0021417D01*
X0123997Y0023016D02*
X0085880Y0023016D01*
X0085803Y0024615D02*
X0123997Y0024615D01*
X0123997Y0026213D02*
X0085141Y0026213D01*
X0083638Y0027812D02*
X0123997Y0027812D01*
X0123997Y0029410D02*
X0084393Y0029410D01*
X0085547Y0031009D02*
X0123997Y0031009D01*
X0123997Y0032607D02*
X0086026Y0032607D01*
X0086016Y0034206D02*
X0123997Y0034206D01*
X0123997Y0035804D02*
X0085515Y0035804D01*
X0084330Y0037403D02*
X0123997Y0037403D01*
X0123997Y0039001D02*
X0027554Y0039001D01*
X0027554Y0039300D02*
X0026875Y0040937D01*
X0025622Y0042190D01*
X0023985Y0042868D01*
X0022213Y0042868D01*
X0020576Y0042190D01*
X0019323Y0040937D01*
X0018645Y0039300D01*
X0018645Y0037528D01*
X0019323Y0035891D01*
X0020576Y0034638D01*
X0022213Y0033960D01*
X0023985Y0033960D01*
X0025622Y0034638D01*
X0026875Y0035891D01*
X0027554Y0037528D01*
X0027554Y0039300D01*
X0027015Y0040600D02*
X0123997Y0040600D01*
X0123997Y0042198D02*
X0025604Y0042198D01*
X0020595Y0042198D02*
X0017028Y0042198D01*
X0016678Y0040600D02*
X0019183Y0040600D01*
X0018645Y0039001D02*
X0015567Y0039001D01*
X0018697Y0037403D02*
X0007950Y0037403D01*
X0007950Y0039001D02*
X0009372Y0039001D01*
X0008260Y0040600D02*
X0007950Y0040600D01*
X0007950Y0043797D02*
X0008133Y0043797D01*
X0007950Y0045395D02*
X0009066Y0045395D01*
X0008119Y0046994D02*
X0123827Y0046994D01*
X0123997Y0045395D02*
X0015873Y0045395D01*
X0016805Y0043797D02*
X0123997Y0043797D01*
X0123113Y0048592D02*
X0008833Y0048592D01*
X0010547Y0050191D02*
X0121400Y0050191D01*
X0080780Y0037403D02*
X0080380Y0037403D01*
X0080380Y0035804D02*
X0080780Y0035804D01*
X0080780Y0034206D02*
X0080380Y0034206D01*
X0075645Y0035804D02*
X0026789Y0035804D01*
X0027502Y0037403D02*
X0076829Y0037403D01*
X0075143Y0034206D02*
X0024579Y0034206D01*
X0021620Y0034206D02*
X0007950Y0034206D01*
X0007950Y0035804D02*
X0019410Y0035804D01*
X0007950Y0032607D02*
X0075133Y0032607D01*
X0075612Y0031009D02*
X0007950Y0031009D01*
X0007950Y0029410D02*
X0039181Y0029410D01*
X0038456Y0027812D02*
X0007950Y0027812D01*
X0007950Y0026213D02*
X0038565Y0026213D01*
X0039544Y0024615D02*
X0007950Y0024615D01*
X0007950Y0023016D02*
X0021809Y0023016D01*
X0022213Y0023183D02*
X0020576Y0022505D01*
X0019323Y0021252D01*
X0018645Y0019615D01*
X0018645Y0017843D01*
X0019323Y0016206D01*
X0020576Y0014953D01*
X0022213Y0014275D01*
X0023985Y0014275D01*
X0025622Y0014953D01*
X0026875Y0016206D01*
X0027554Y0017843D01*
X0027554Y0019615D01*
X0026875Y0021252D01*
X0025622Y0022505D01*
X0023985Y0023183D01*
X0022213Y0023183D01*
X0024389Y0023016D02*
X0043264Y0023016D01*
X0044862Y0021417D02*
X0026710Y0021417D01*
X0027469Y0019819D02*
X0050869Y0019819D01*
X0051251Y0018220D02*
X0042805Y0018220D01*
X0042675Y0018315D02*
X0041903Y0018708D01*
X0041080Y0018976D01*
X0040225Y0019111D01*
X0039878Y0019111D01*
X0039878Y0013697D01*
X0039706Y0013697D01*
X0039706Y0013525D01*
X0039878Y0013525D01*
X0039878Y0013697D01*
X0045292Y0013697D01*
X0045292Y0014044D01*
X0045157Y0014899D01*
X0044889Y0015722D01*
X0044496Y0016494D01*
X0043987Y0017194D01*
X0043375Y0017806D01*
X0042675Y0018315D01*
X0039878Y0018220D02*
X0039706Y0018220D01*
X0039706Y0019111D02*
X0039359Y0019111D01*
X0038504Y0018976D01*
X0037681Y0018708D01*
X0036909Y0018315D01*
X0036209Y0017806D01*
X0035597Y0017194D01*
X0035088Y0016494D01*
X0034695Y0015722D01*
X0034428Y0014899D01*
X0034292Y0014044D01*
X0034292Y0013697D01*
X0039706Y0013697D01*
X0039706Y0019111D01*
X0036779Y0018220D02*
X0027554Y0018220D01*
X0027048Y0016622D02*
X0035181Y0016622D01*
X0034468Y0015023D02*
X0025693Y0015023D01*
X0020506Y0015023D02*
X0017028Y0015023D01*
X0016838Y0013425D02*
X0034292Y0013425D01*
X0034589Y0011826D02*
X0015951Y0011826D01*
X0008988Y0011826D02*
X0007966Y0011826D01*
X0008349Y0010228D02*
X0035452Y0010228D01*
X0039706Y0010228D02*
X0039878Y0010228D01*
X0039878Y0011826D02*
X0039706Y0011826D01*
X0039706Y0013425D02*
X0039878Y0013425D01*
X0039878Y0015023D02*
X0039706Y0015023D01*
X0039706Y0016622D02*
X0039878Y0016622D01*
X0044403Y0016622D02*
X0052877Y0016622D01*
X0056062Y0016622D02*
X0063811Y0016622D01*
X0064641Y0015023D02*
X0045116Y0015023D01*
X0045292Y0013425D02*
X0064492Y0013425D01*
X0064795Y0011826D02*
X0044995Y0011826D01*
X0044133Y0010228D02*
X0065680Y0010228D01*
X0066554Y0019819D02*
X0076640Y0019819D01*
X0076018Y0026213D02*
X0046006Y0026213D01*
X0045656Y0027812D02*
X0077521Y0027812D01*
X0076766Y0029410D02*
X0044931Y0029410D01*
X0019488Y0021417D02*
X0007950Y0021417D01*
X0007950Y0019819D02*
X0018729Y0019819D01*
X0018645Y0018220D02*
X0015488Y0018220D01*
X0016646Y0016622D02*
X0019151Y0016622D01*
X0009450Y0018220D02*
X0007950Y0018220D01*
X0007950Y0016622D02*
X0008293Y0016622D01*
X0008101Y0013425D02*
X0007950Y0013425D01*
D13*
X0042056Y0027194D03*
X0053375Y0030146D03*
X0054469Y0019859D03*
D14*
X0063544Y0019859D01*
X0069792Y0013611D01*
X0080580Y0023375D02*
X0045875Y0023375D01*
X0042056Y0027194D01*
M02*
