G75*
%MOIN*%
%OFA0B0*%
%FSLAX25Y25*%
%IPPOS*%
%LPD*%
%AMOC8*
5,1,8,0,0,1.08239X$1,22.5*
%
%ADD10C,0.02000*%
%ADD11R,0.04331X0.03937*%
%ADD12C,0.01181*%
%ADD13C,0.05709*%
%ADD14R,0.05315X0.01575*%
%ADD15R,0.07480X0.05906*%
%ADD16C,0.00000*%
%ADD17C,0.01600*%
%ADD18R,0.18110X0.03937*%
%ADD19R,0.13386X0.06299*%
%ADD20C,0.07400*%
%ADD21R,0.03937X0.04331*%
%ADD22R,0.04724X0.02165*%
%ADD23C,0.01000*%
%ADD24C,0.04000*%
D10*
X0012824Y0004162D02*
X0119123Y0004162D01*
X0119313Y0004164D01*
X0119503Y0004171D01*
X0119693Y0004183D01*
X0119883Y0004199D01*
X0120072Y0004219D01*
X0120261Y0004245D01*
X0120449Y0004274D01*
X0120636Y0004309D01*
X0120822Y0004348D01*
X0121007Y0004391D01*
X0121192Y0004439D01*
X0121375Y0004491D01*
X0121556Y0004547D01*
X0121736Y0004608D01*
X0121915Y0004674D01*
X0122092Y0004743D01*
X0122268Y0004817D01*
X0122441Y0004895D01*
X0122613Y0004978D01*
X0122782Y0005064D01*
X0122950Y0005154D01*
X0123115Y0005249D01*
X0123278Y0005347D01*
X0123438Y0005450D01*
X0123596Y0005556D01*
X0123751Y0005666D01*
X0123904Y0005779D01*
X0124054Y0005897D01*
X0124200Y0006018D01*
X0124344Y0006142D01*
X0124485Y0006270D01*
X0124623Y0006401D01*
X0124758Y0006536D01*
X0124889Y0006674D01*
X0125017Y0006815D01*
X0125141Y0006959D01*
X0125262Y0007105D01*
X0125380Y0007255D01*
X0125493Y0007408D01*
X0125603Y0007563D01*
X0125709Y0007721D01*
X0125812Y0007881D01*
X0125910Y0008044D01*
X0126005Y0008209D01*
X0126095Y0008377D01*
X0126181Y0008546D01*
X0126264Y0008718D01*
X0126342Y0008891D01*
X0126416Y0009067D01*
X0126485Y0009244D01*
X0126551Y0009423D01*
X0126612Y0009603D01*
X0126668Y0009784D01*
X0126720Y0009967D01*
X0126768Y0010152D01*
X0126811Y0010337D01*
X0126850Y0010523D01*
X0126885Y0010710D01*
X0126914Y0010898D01*
X0126940Y0011087D01*
X0126960Y0011276D01*
X0126976Y0011466D01*
X0126988Y0011656D01*
X0126995Y0011846D01*
X0126997Y0012036D01*
X0126997Y0045894D01*
X0126995Y0046084D01*
X0126988Y0046274D01*
X0126976Y0046464D01*
X0126960Y0046654D01*
X0126940Y0046843D01*
X0126914Y0047032D01*
X0126885Y0047220D01*
X0126850Y0047407D01*
X0126811Y0047593D01*
X0126768Y0047778D01*
X0126720Y0047963D01*
X0126668Y0048146D01*
X0126612Y0048327D01*
X0126551Y0048507D01*
X0126485Y0048686D01*
X0126416Y0048863D01*
X0126342Y0049039D01*
X0126264Y0049212D01*
X0126181Y0049384D01*
X0126095Y0049553D01*
X0126005Y0049721D01*
X0125910Y0049886D01*
X0125812Y0050049D01*
X0125709Y0050209D01*
X0125603Y0050367D01*
X0125493Y0050522D01*
X0125380Y0050675D01*
X0125262Y0050825D01*
X0125141Y0050971D01*
X0125017Y0051115D01*
X0124889Y0051256D01*
X0124758Y0051394D01*
X0124623Y0051529D01*
X0124485Y0051660D01*
X0124344Y0051788D01*
X0124200Y0051912D01*
X0124054Y0052033D01*
X0123904Y0052151D01*
X0123751Y0052264D01*
X0123596Y0052374D01*
X0123438Y0052480D01*
X0123278Y0052583D01*
X0123115Y0052681D01*
X0122950Y0052776D01*
X0122782Y0052866D01*
X0122613Y0052952D01*
X0122441Y0053035D01*
X0122268Y0053113D01*
X0122092Y0053187D01*
X0121915Y0053256D01*
X0121736Y0053322D01*
X0121556Y0053383D01*
X0121375Y0053439D01*
X0121192Y0053491D01*
X0121007Y0053539D01*
X0120822Y0053582D01*
X0120636Y0053621D01*
X0120449Y0053656D01*
X0120261Y0053685D01*
X0120072Y0053711D01*
X0119883Y0053731D01*
X0119693Y0053747D01*
X0119503Y0053759D01*
X0119313Y0053766D01*
X0119123Y0053768D01*
X0119123Y0053769D02*
X0012036Y0053769D01*
X0012824Y0053768D02*
X0012634Y0053766D01*
X0012444Y0053759D01*
X0012254Y0053747D01*
X0012064Y0053731D01*
X0011875Y0053711D01*
X0011686Y0053685D01*
X0011498Y0053656D01*
X0011311Y0053621D01*
X0011125Y0053582D01*
X0010940Y0053539D01*
X0010755Y0053491D01*
X0010572Y0053439D01*
X0010391Y0053383D01*
X0010211Y0053322D01*
X0010032Y0053256D01*
X0009855Y0053187D01*
X0009679Y0053113D01*
X0009506Y0053035D01*
X0009334Y0052952D01*
X0009165Y0052866D01*
X0008997Y0052776D01*
X0008832Y0052681D01*
X0008669Y0052583D01*
X0008509Y0052480D01*
X0008351Y0052374D01*
X0008196Y0052264D01*
X0008043Y0052151D01*
X0007893Y0052033D01*
X0007747Y0051912D01*
X0007603Y0051788D01*
X0007462Y0051660D01*
X0007324Y0051529D01*
X0007189Y0051394D01*
X0007058Y0051256D01*
X0006930Y0051115D01*
X0006806Y0050971D01*
X0006685Y0050825D01*
X0006567Y0050675D01*
X0006454Y0050522D01*
X0006344Y0050367D01*
X0006238Y0050209D01*
X0006135Y0050049D01*
X0006037Y0049886D01*
X0005942Y0049721D01*
X0005852Y0049553D01*
X0005766Y0049384D01*
X0005683Y0049212D01*
X0005605Y0049039D01*
X0005531Y0048863D01*
X0005462Y0048686D01*
X0005396Y0048507D01*
X0005335Y0048327D01*
X0005279Y0048146D01*
X0005227Y0047963D01*
X0005179Y0047778D01*
X0005136Y0047593D01*
X0005097Y0047407D01*
X0005062Y0047220D01*
X0005033Y0047032D01*
X0005007Y0046843D01*
X0004987Y0046654D01*
X0004971Y0046464D01*
X0004959Y0046274D01*
X0004952Y0046084D01*
X0004950Y0045894D01*
X0004950Y0012036D01*
X0004952Y0011846D01*
X0004959Y0011656D01*
X0004971Y0011466D01*
X0004987Y0011276D01*
X0005007Y0011087D01*
X0005033Y0010898D01*
X0005062Y0010710D01*
X0005097Y0010523D01*
X0005136Y0010337D01*
X0005179Y0010152D01*
X0005227Y0009967D01*
X0005279Y0009784D01*
X0005335Y0009603D01*
X0005396Y0009423D01*
X0005462Y0009244D01*
X0005531Y0009067D01*
X0005605Y0008891D01*
X0005683Y0008718D01*
X0005766Y0008546D01*
X0005852Y0008377D01*
X0005942Y0008209D01*
X0006037Y0008044D01*
X0006135Y0007881D01*
X0006238Y0007721D01*
X0006344Y0007563D01*
X0006454Y0007408D01*
X0006567Y0007255D01*
X0006685Y0007105D01*
X0006806Y0006959D01*
X0006930Y0006815D01*
X0007058Y0006674D01*
X0007189Y0006536D01*
X0007324Y0006401D01*
X0007462Y0006270D01*
X0007603Y0006142D01*
X0007747Y0006018D01*
X0007893Y0005897D01*
X0008043Y0005779D01*
X0008196Y0005666D01*
X0008351Y0005556D01*
X0008509Y0005450D01*
X0008669Y0005347D01*
X0008832Y0005249D01*
X0008997Y0005154D01*
X0009165Y0005064D01*
X0009334Y0004978D01*
X0009506Y0004895D01*
X0009679Y0004817D01*
X0009855Y0004743D01*
X0010032Y0004674D01*
X0010211Y0004608D01*
X0010391Y0004547D01*
X0010572Y0004491D01*
X0010755Y0004439D01*
X0010940Y0004391D01*
X0011125Y0004348D01*
X0011311Y0004309D01*
X0011498Y0004274D01*
X0011686Y0004245D01*
X0011875Y0004219D01*
X0012064Y0004199D01*
X0012254Y0004183D01*
X0012444Y0004171D01*
X0012634Y0004164D01*
X0012824Y0004162D01*
D11*
X0036446Y0043611D03*
X0043139Y0043611D03*
X0051446Y0043643D03*
X0058139Y0043643D03*
D12*
X0041867Y0037489D02*
X0041867Y0034733D01*
X0041867Y0037489D02*
X0044623Y0037489D01*
X0044623Y0034733D01*
X0041867Y0034733D01*
X0041867Y0035913D02*
X0044623Y0035913D01*
X0044623Y0037093D02*
X0041867Y0037093D01*
X0034961Y0037489D02*
X0034961Y0034733D01*
X0034961Y0037489D02*
X0037717Y0037489D01*
X0037717Y0034733D01*
X0034961Y0034733D01*
X0034961Y0035913D02*
X0037717Y0035913D01*
X0037717Y0037093D02*
X0034961Y0037093D01*
D13*
X0023099Y0038414D03*
X0023099Y0018729D03*
D14*
X0023099Y0023454D03*
X0023099Y0026013D03*
X0023099Y0028572D03*
X0023099Y0031131D03*
X0023099Y0033690D03*
D15*
X0012469Y0032509D03*
X0012469Y0024635D03*
D16*
X0009910Y0014792D02*
X0009912Y0014893D01*
X0009918Y0014994D01*
X0009928Y0015095D01*
X0009942Y0015195D01*
X0009960Y0015294D01*
X0009982Y0015393D01*
X0010007Y0015491D01*
X0010037Y0015588D01*
X0010070Y0015683D01*
X0010107Y0015777D01*
X0010148Y0015870D01*
X0010192Y0015961D01*
X0010240Y0016050D01*
X0010292Y0016137D01*
X0010347Y0016222D01*
X0010405Y0016304D01*
X0010466Y0016385D01*
X0010531Y0016463D01*
X0010598Y0016538D01*
X0010668Y0016610D01*
X0010742Y0016680D01*
X0010818Y0016747D01*
X0010896Y0016811D01*
X0010977Y0016871D01*
X0011060Y0016928D01*
X0011146Y0016982D01*
X0011234Y0017033D01*
X0011323Y0017080D01*
X0011414Y0017124D01*
X0011507Y0017163D01*
X0011602Y0017200D01*
X0011697Y0017232D01*
X0011794Y0017261D01*
X0011893Y0017285D01*
X0011991Y0017306D01*
X0012091Y0017323D01*
X0012191Y0017336D01*
X0012292Y0017345D01*
X0012393Y0017350D01*
X0012494Y0017351D01*
X0012595Y0017348D01*
X0012696Y0017341D01*
X0012797Y0017330D01*
X0012897Y0017315D01*
X0012996Y0017296D01*
X0013095Y0017273D01*
X0013192Y0017247D01*
X0013289Y0017216D01*
X0013384Y0017182D01*
X0013477Y0017144D01*
X0013570Y0017102D01*
X0013660Y0017057D01*
X0013749Y0017008D01*
X0013835Y0016956D01*
X0013919Y0016900D01*
X0014002Y0016841D01*
X0014081Y0016779D01*
X0014159Y0016714D01*
X0014233Y0016646D01*
X0014305Y0016574D01*
X0014374Y0016501D01*
X0014440Y0016424D01*
X0014503Y0016345D01*
X0014563Y0016263D01*
X0014619Y0016179D01*
X0014672Y0016093D01*
X0014722Y0016005D01*
X0014768Y0015915D01*
X0014811Y0015824D01*
X0014850Y0015730D01*
X0014885Y0015635D01*
X0014916Y0015539D01*
X0014944Y0015442D01*
X0014968Y0015344D01*
X0014988Y0015245D01*
X0015004Y0015145D01*
X0015016Y0015044D01*
X0015024Y0014944D01*
X0015028Y0014843D01*
X0015028Y0014741D01*
X0015024Y0014640D01*
X0015016Y0014540D01*
X0015004Y0014439D01*
X0014988Y0014339D01*
X0014968Y0014240D01*
X0014944Y0014142D01*
X0014916Y0014045D01*
X0014885Y0013949D01*
X0014850Y0013854D01*
X0014811Y0013760D01*
X0014768Y0013669D01*
X0014722Y0013579D01*
X0014672Y0013491D01*
X0014619Y0013405D01*
X0014563Y0013321D01*
X0014503Y0013239D01*
X0014440Y0013160D01*
X0014374Y0013083D01*
X0014305Y0013010D01*
X0014233Y0012938D01*
X0014159Y0012870D01*
X0014081Y0012805D01*
X0014002Y0012743D01*
X0013919Y0012684D01*
X0013835Y0012628D01*
X0013748Y0012576D01*
X0013660Y0012527D01*
X0013570Y0012482D01*
X0013477Y0012440D01*
X0013384Y0012402D01*
X0013289Y0012368D01*
X0013192Y0012337D01*
X0013095Y0012311D01*
X0012996Y0012288D01*
X0012897Y0012269D01*
X0012797Y0012254D01*
X0012696Y0012243D01*
X0012595Y0012236D01*
X0012494Y0012233D01*
X0012393Y0012234D01*
X0012292Y0012239D01*
X0012191Y0012248D01*
X0012091Y0012261D01*
X0011991Y0012278D01*
X0011893Y0012299D01*
X0011794Y0012323D01*
X0011697Y0012352D01*
X0011602Y0012384D01*
X0011507Y0012421D01*
X0011414Y0012460D01*
X0011323Y0012504D01*
X0011234Y0012551D01*
X0011146Y0012602D01*
X0011060Y0012656D01*
X0010977Y0012713D01*
X0010896Y0012773D01*
X0010818Y0012837D01*
X0010742Y0012904D01*
X0010668Y0012974D01*
X0010598Y0013046D01*
X0010531Y0013121D01*
X0010466Y0013199D01*
X0010405Y0013280D01*
X0010347Y0013362D01*
X0010292Y0013447D01*
X0010240Y0013534D01*
X0010192Y0013623D01*
X0010148Y0013714D01*
X0010107Y0013807D01*
X0010070Y0013901D01*
X0010037Y0013996D01*
X0010007Y0014093D01*
X0009982Y0014191D01*
X0009960Y0014290D01*
X0009942Y0014389D01*
X0009928Y0014489D01*
X0009918Y0014590D01*
X0009912Y0014691D01*
X0009910Y0014792D01*
X0009910Y0042351D02*
X0009912Y0042452D01*
X0009918Y0042553D01*
X0009928Y0042654D01*
X0009942Y0042754D01*
X0009960Y0042853D01*
X0009982Y0042952D01*
X0010007Y0043050D01*
X0010037Y0043147D01*
X0010070Y0043242D01*
X0010107Y0043336D01*
X0010148Y0043429D01*
X0010192Y0043520D01*
X0010240Y0043609D01*
X0010292Y0043696D01*
X0010347Y0043781D01*
X0010405Y0043863D01*
X0010466Y0043944D01*
X0010531Y0044022D01*
X0010598Y0044097D01*
X0010668Y0044169D01*
X0010742Y0044239D01*
X0010818Y0044306D01*
X0010896Y0044370D01*
X0010977Y0044430D01*
X0011060Y0044487D01*
X0011146Y0044541D01*
X0011234Y0044592D01*
X0011323Y0044639D01*
X0011414Y0044683D01*
X0011507Y0044722D01*
X0011602Y0044759D01*
X0011697Y0044791D01*
X0011794Y0044820D01*
X0011893Y0044844D01*
X0011991Y0044865D01*
X0012091Y0044882D01*
X0012191Y0044895D01*
X0012292Y0044904D01*
X0012393Y0044909D01*
X0012494Y0044910D01*
X0012595Y0044907D01*
X0012696Y0044900D01*
X0012797Y0044889D01*
X0012897Y0044874D01*
X0012996Y0044855D01*
X0013095Y0044832D01*
X0013192Y0044806D01*
X0013289Y0044775D01*
X0013384Y0044741D01*
X0013477Y0044703D01*
X0013570Y0044661D01*
X0013660Y0044616D01*
X0013749Y0044567D01*
X0013835Y0044515D01*
X0013919Y0044459D01*
X0014002Y0044400D01*
X0014081Y0044338D01*
X0014159Y0044273D01*
X0014233Y0044205D01*
X0014305Y0044133D01*
X0014374Y0044060D01*
X0014440Y0043983D01*
X0014503Y0043904D01*
X0014563Y0043822D01*
X0014619Y0043738D01*
X0014672Y0043652D01*
X0014722Y0043564D01*
X0014768Y0043474D01*
X0014811Y0043383D01*
X0014850Y0043289D01*
X0014885Y0043194D01*
X0014916Y0043098D01*
X0014944Y0043001D01*
X0014968Y0042903D01*
X0014988Y0042804D01*
X0015004Y0042704D01*
X0015016Y0042603D01*
X0015024Y0042503D01*
X0015028Y0042402D01*
X0015028Y0042300D01*
X0015024Y0042199D01*
X0015016Y0042099D01*
X0015004Y0041998D01*
X0014988Y0041898D01*
X0014968Y0041799D01*
X0014944Y0041701D01*
X0014916Y0041604D01*
X0014885Y0041508D01*
X0014850Y0041413D01*
X0014811Y0041319D01*
X0014768Y0041228D01*
X0014722Y0041138D01*
X0014672Y0041050D01*
X0014619Y0040964D01*
X0014563Y0040880D01*
X0014503Y0040798D01*
X0014440Y0040719D01*
X0014374Y0040642D01*
X0014305Y0040569D01*
X0014233Y0040497D01*
X0014159Y0040429D01*
X0014081Y0040364D01*
X0014002Y0040302D01*
X0013919Y0040243D01*
X0013835Y0040187D01*
X0013748Y0040135D01*
X0013660Y0040086D01*
X0013570Y0040041D01*
X0013477Y0039999D01*
X0013384Y0039961D01*
X0013289Y0039927D01*
X0013192Y0039896D01*
X0013095Y0039870D01*
X0012996Y0039847D01*
X0012897Y0039828D01*
X0012797Y0039813D01*
X0012696Y0039802D01*
X0012595Y0039795D01*
X0012494Y0039792D01*
X0012393Y0039793D01*
X0012292Y0039798D01*
X0012191Y0039807D01*
X0012091Y0039820D01*
X0011991Y0039837D01*
X0011893Y0039858D01*
X0011794Y0039882D01*
X0011697Y0039911D01*
X0011602Y0039943D01*
X0011507Y0039980D01*
X0011414Y0040019D01*
X0011323Y0040063D01*
X0011234Y0040110D01*
X0011146Y0040161D01*
X0011060Y0040215D01*
X0010977Y0040272D01*
X0010896Y0040332D01*
X0010818Y0040396D01*
X0010742Y0040463D01*
X0010668Y0040533D01*
X0010598Y0040605D01*
X0010531Y0040680D01*
X0010466Y0040758D01*
X0010405Y0040839D01*
X0010347Y0040921D01*
X0010292Y0041006D01*
X0010240Y0041093D01*
X0010192Y0041182D01*
X0010148Y0041273D01*
X0010107Y0041366D01*
X0010070Y0041460D01*
X0010037Y0041555D01*
X0010007Y0041652D01*
X0009982Y0041750D01*
X0009960Y0041849D01*
X0009942Y0041948D01*
X0009928Y0042048D01*
X0009918Y0042149D01*
X0009912Y0042250D01*
X0009910Y0042351D01*
D17*
X0008138Y0042351D02*
X0008140Y0042482D01*
X0008146Y0042614D01*
X0008156Y0042745D01*
X0008170Y0042876D01*
X0008188Y0043006D01*
X0008210Y0043135D01*
X0008235Y0043264D01*
X0008265Y0043392D01*
X0008299Y0043519D01*
X0008336Y0043646D01*
X0008377Y0043770D01*
X0008422Y0043894D01*
X0008471Y0044016D01*
X0008523Y0044137D01*
X0008579Y0044255D01*
X0008639Y0044373D01*
X0008702Y0044488D01*
X0008769Y0044601D01*
X0008839Y0044713D01*
X0008912Y0044822D01*
X0008988Y0044928D01*
X0009068Y0045033D01*
X0009151Y0045135D01*
X0009237Y0045234D01*
X0009326Y0045331D01*
X0009418Y0045425D01*
X0009513Y0045516D01*
X0009610Y0045605D01*
X0009710Y0045690D01*
X0009813Y0045772D01*
X0009918Y0045851D01*
X0010025Y0045927D01*
X0010135Y0045999D01*
X0010247Y0046068D01*
X0010361Y0046134D01*
X0010476Y0046196D01*
X0010594Y0046255D01*
X0010713Y0046310D01*
X0010834Y0046362D01*
X0010957Y0046409D01*
X0011081Y0046453D01*
X0011206Y0046494D01*
X0011332Y0046530D01*
X0011460Y0046563D01*
X0011588Y0046591D01*
X0011717Y0046616D01*
X0011847Y0046637D01*
X0011977Y0046654D01*
X0012108Y0046667D01*
X0012239Y0046676D01*
X0012370Y0046681D01*
X0012502Y0046682D01*
X0012633Y0046679D01*
X0012765Y0046672D01*
X0012896Y0046661D01*
X0013026Y0046646D01*
X0013156Y0046627D01*
X0013286Y0046604D01*
X0013414Y0046578D01*
X0013542Y0046547D01*
X0013669Y0046512D01*
X0013795Y0046474D01*
X0013919Y0046432D01*
X0014043Y0046386D01*
X0014164Y0046336D01*
X0014284Y0046283D01*
X0014403Y0046226D01*
X0014520Y0046166D01*
X0014634Y0046102D01*
X0014747Y0046034D01*
X0014858Y0045963D01*
X0014967Y0045889D01*
X0015073Y0045812D01*
X0015177Y0045731D01*
X0015278Y0045648D01*
X0015377Y0045561D01*
X0015473Y0045471D01*
X0015566Y0045378D01*
X0015657Y0045283D01*
X0015744Y0045185D01*
X0015829Y0045084D01*
X0015910Y0044981D01*
X0015988Y0044875D01*
X0016063Y0044767D01*
X0016135Y0044657D01*
X0016203Y0044545D01*
X0016268Y0044431D01*
X0016329Y0044314D01*
X0016387Y0044196D01*
X0016441Y0044076D01*
X0016492Y0043955D01*
X0016539Y0043832D01*
X0016582Y0043708D01*
X0016621Y0043583D01*
X0016657Y0043456D01*
X0016688Y0043328D01*
X0016716Y0043200D01*
X0016740Y0043071D01*
X0016760Y0042941D01*
X0016776Y0042810D01*
X0016788Y0042679D01*
X0016796Y0042548D01*
X0016800Y0042417D01*
X0016800Y0042285D01*
X0016796Y0042154D01*
X0016788Y0042023D01*
X0016776Y0041892D01*
X0016760Y0041761D01*
X0016740Y0041631D01*
X0016716Y0041502D01*
X0016688Y0041374D01*
X0016657Y0041246D01*
X0016621Y0041119D01*
X0016582Y0040994D01*
X0016539Y0040870D01*
X0016492Y0040747D01*
X0016441Y0040626D01*
X0016387Y0040506D01*
X0016329Y0040388D01*
X0016268Y0040271D01*
X0016203Y0040157D01*
X0016135Y0040045D01*
X0016063Y0039935D01*
X0015988Y0039827D01*
X0015910Y0039721D01*
X0015829Y0039618D01*
X0015744Y0039517D01*
X0015657Y0039419D01*
X0015566Y0039324D01*
X0015473Y0039231D01*
X0015377Y0039141D01*
X0015278Y0039054D01*
X0015177Y0038971D01*
X0015073Y0038890D01*
X0014967Y0038813D01*
X0014858Y0038739D01*
X0014747Y0038668D01*
X0014635Y0038600D01*
X0014520Y0038536D01*
X0014403Y0038476D01*
X0014284Y0038419D01*
X0014164Y0038366D01*
X0014043Y0038316D01*
X0013919Y0038270D01*
X0013795Y0038228D01*
X0013669Y0038190D01*
X0013542Y0038155D01*
X0013414Y0038124D01*
X0013286Y0038098D01*
X0013156Y0038075D01*
X0013026Y0038056D01*
X0012896Y0038041D01*
X0012765Y0038030D01*
X0012633Y0038023D01*
X0012502Y0038020D01*
X0012370Y0038021D01*
X0012239Y0038026D01*
X0012108Y0038035D01*
X0011977Y0038048D01*
X0011847Y0038065D01*
X0011717Y0038086D01*
X0011588Y0038111D01*
X0011460Y0038139D01*
X0011332Y0038172D01*
X0011206Y0038208D01*
X0011081Y0038249D01*
X0010957Y0038293D01*
X0010834Y0038340D01*
X0010713Y0038392D01*
X0010594Y0038447D01*
X0010476Y0038506D01*
X0010361Y0038568D01*
X0010247Y0038634D01*
X0010135Y0038703D01*
X0010025Y0038775D01*
X0009918Y0038851D01*
X0009813Y0038930D01*
X0009710Y0039012D01*
X0009610Y0039097D01*
X0009513Y0039186D01*
X0009418Y0039277D01*
X0009326Y0039371D01*
X0009237Y0039468D01*
X0009151Y0039567D01*
X0009068Y0039669D01*
X0008988Y0039774D01*
X0008912Y0039880D01*
X0008839Y0039989D01*
X0008769Y0040101D01*
X0008702Y0040214D01*
X0008639Y0040329D01*
X0008579Y0040447D01*
X0008523Y0040565D01*
X0008471Y0040686D01*
X0008422Y0040808D01*
X0008377Y0040932D01*
X0008336Y0041056D01*
X0008299Y0041183D01*
X0008265Y0041310D01*
X0008235Y0041438D01*
X0008210Y0041567D01*
X0008188Y0041696D01*
X0008170Y0041826D01*
X0008156Y0041957D01*
X0008146Y0042088D01*
X0008140Y0042220D01*
X0008138Y0042351D01*
X0018191Y0039001D02*
X0018645Y0039001D01*
X0018645Y0039300D02*
X0018645Y0037528D01*
X0019323Y0035891D01*
X0019458Y0035756D01*
X0018842Y0035140D01*
X0018842Y0025070D01*
X0018764Y0024936D01*
X0018642Y0024478D01*
X0018642Y0023454D01*
X0023099Y0023454D01*
X0023099Y0023453D01*
X0018642Y0023453D01*
X0018642Y0022429D01*
X0018764Y0021971D01*
X0019001Y0021561D01*
X0019319Y0021243D01*
X0018645Y0019615D01*
X0018645Y0017843D01*
X0019323Y0016206D01*
X0020576Y0014953D01*
X0022213Y0014275D01*
X0023985Y0014275D01*
X0025622Y0014953D01*
X0026875Y0016206D01*
X0027554Y0017843D01*
X0027554Y0019615D01*
X0026879Y0021243D01*
X0027197Y0021561D01*
X0027434Y0021971D01*
X0027557Y0022429D01*
X0027557Y0023453D01*
X0023099Y0023453D01*
X0023099Y0023454D01*
X0031721Y0023493D01*
X0031721Y0025422D01*
X0033211Y0024116D02*
X0034149Y0025054D01*
X0039105Y0025054D01*
X0039004Y0025154D01*
X0038456Y0026478D01*
X0038456Y0027169D01*
X0034149Y0027169D01*
X0033211Y0028106D01*
X0033211Y0031326D01*
X0027357Y0031305D01*
X0027357Y0025070D01*
X0027434Y0024936D01*
X0027557Y0024478D01*
X0027557Y0023454D01*
X0023099Y0023454D01*
X0019145Y0021417D02*
X0017809Y0021417D01*
X0017809Y0021019D02*
X0017809Y0028250D01*
X0017488Y0028572D01*
X0017809Y0028893D01*
X0017809Y0036124D01*
X0016872Y0037061D01*
X0016609Y0037061D01*
X0016666Y0037089D01*
X0018533Y0039431D01*
X0019200Y0042351D01*
X0018533Y0045272D01*
X0016666Y0047613D01*
X0013967Y0048913D01*
X0010972Y0048913D01*
X0008329Y0047641D01*
X0008481Y0048107D01*
X0009377Y0049341D01*
X0010611Y0050237D01*
X0012061Y0050709D01*
X0012824Y0050769D01*
X0119123Y0050769D01*
X0119885Y0050709D01*
X0121336Y0050237D01*
X0122569Y0049341D01*
X0123466Y0048107D01*
X0123937Y0046657D01*
X0123997Y0045894D01*
X0123997Y0012036D01*
X0123991Y0011956D01*
X0123991Y0019038D01*
X0123053Y0019975D01*
X0108342Y0019975D01*
X0107405Y0019038D01*
X0107405Y0011413D01*
X0108342Y0010476D01*
X0123053Y0010476D01*
X0123944Y0011366D01*
X0123937Y0011274D01*
X0123466Y0009823D01*
X0122569Y0008590D01*
X0121336Y0007693D01*
X0119885Y0007222D01*
X0119123Y0007162D01*
X0012824Y0007162D01*
X0012061Y0007222D01*
X0010611Y0007693D01*
X0009377Y0008590D01*
X0008921Y0009218D01*
X0010972Y0008230D01*
X0013967Y0008230D01*
X0016666Y0009530D01*
X0018533Y0011872D01*
X0019200Y0014792D01*
X0018533Y0017712D01*
X0018533Y0017712D01*
X0016666Y0020054D01*
X0016609Y0020082D01*
X0016872Y0020082D01*
X0017809Y0021019D01*
X0016666Y0020054D02*
X0016666Y0020054D01*
X0016854Y0019819D02*
X0018729Y0019819D01*
X0018645Y0018220D02*
X0018128Y0018220D01*
X0018782Y0016622D02*
X0019151Y0016622D01*
X0019147Y0015023D02*
X0020506Y0015023D01*
X0018888Y0013425D02*
X0034292Y0013425D01*
X0034292Y0013525D02*
X0034292Y0013178D01*
X0034428Y0012323D01*
X0034695Y0011500D01*
X0035088Y0010728D01*
X0035597Y0010028D01*
X0036209Y0009416D01*
X0036909Y0008907D01*
X0037681Y0008514D01*
X0038504Y0008246D01*
X0039359Y0008111D01*
X0039706Y0008111D01*
X0039706Y0013525D01*
X0034292Y0013525D01*
X0034292Y0013697D02*
X0039706Y0013697D01*
X0039706Y0013525D01*
X0039878Y0013525D01*
X0039878Y0008111D01*
X0040225Y0008111D01*
X0041080Y0008246D01*
X0041903Y0008514D01*
X0042675Y0008907D01*
X0043375Y0009416D01*
X0043987Y0010028D01*
X0044496Y0010728D01*
X0044889Y0011500D01*
X0045157Y0012323D01*
X0045292Y0013178D01*
X0045292Y0013525D01*
X0039878Y0013525D01*
X0039878Y0013697D01*
X0039706Y0013697D01*
X0039706Y0019111D01*
X0039359Y0019111D01*
X0038504Y0018976D01*
X0037681Y0018708D01*
X0036909Y0018315D01*
X0036209Y0017806D01*
X0035597Y0017194D01*
X0035088Y0016494D01*
X0034695Y0015722D01*
X0034428Y0014899D01*
X0034292Y0014044D01*
X0034292Y0013697D01*
X0034468Y0015023D02*
X0025693Y0015023D01*
X0027048Y0016622D02*
X0035181Y0016622D01*
X0036779Y0018220D02*
X0027554Y0018220D01*
X0027469Y0019819D02*
X0034018Y0019819D01*
X0034149Y0019688D02*
X0033211Y0020625D01*
X0033211Y0024116D01*
X0033710Y0024615D02*
X0027520Y0024615D01*
X0027557Y0023016D02*
X0033211Y0023016D01*
X0033211Y0021417D02*
X0027054Y0021417D01*
X0034149Y0019688D02*
X0040199Y0019688D01*
X0040683Y0020172D01*
X0041186Y0020172D01*
X0043869Y0017489D01*
X0043869Y0017312D01*
X0043375Y0017806D01*
X0042675Y0018315D01*
X0041903Y0018708D01*
X0041080Y0018976D01*
X0040225Y0019111D01*
X0039878Y0019111D01*
X0039878Y0013697D01*
X0045292Y0013697D01*
X0045292Y0013945D01*
X0045430Y0013807D01*
X0046753Y0013259D01*
X0048185Y0013259D01*
X0049509Y0013807D01*
X0050521Y0014820D01*
X0051069Y0016143D01*
X0051069Y0017575D01*
X0050521Y0018898D01*
X0049731Y0019688D01*
X0050436Y0019688D01*
X0050920Y0020172D01*
X0052276Y0020172D01*
X0053506Y0021403D01*
X0057677Y0025573D01*
X0057677Y0023795D01*
X0061261Y0023795D01*
X0061261Y0023427D01*
X0057677Y0023427D01*
X0057677Y0021209D01*
X0057800Y0020751D01*
X0058037Y0020340D01*
X0058372Y0020005D01*
X0058782Y0019768D01*
X0059240Y0019646D01*
X0061261Y0019646D01*
X0061261Y0023427D01*
X0061630Y0023427D01*
X0061630Y0019646D01*
X0063651Y0019646D01*
X0064109Y0019768D01*
X0064519Y0020005D01*
X0064855Y0020340D01*
X0064912Y0020441D01*
X0065507Y0019846D01*
X0066039Y0019846D01*
X0066039Y0017353D01*
X0065299Y0016613D01*
X0064492Y0014665D01*
X0064492Y0012557D01*
X0065299Y0010609D01*
X0066790Y0009118D01*
X0068738Y0008311D01*
X0070846Y0008311D01*
X0072794Y0009118D01*
X0074285Y0010609D01*
X0075092Y0012557D01*
X0075092Y0014665D01*
X0074285Y0016613D01*
X0072794Y0018104D01*
X0070846Y0018911D01*
X0070239Y0018911D01*
X0070239Y0019846D01*
X0070770Y0019846D01*
X0071707Y0020783D01*
X0071707Y0026439D01*
X0070770Y0027376D01*
X0065507Y0027376D01*
X0064912Y0026781D01*
X0064855Y0026882D01*
X0064519Y0027217D01*
X0064109Y0027454D01*
X0063651Y0027576D01*
X0061630Y0027576D01*
X0061630Y0023795D01*
X0061261Y0023795D01*
X0061261Y0027576D01*
X0059680Y0027576D01*
X0059805Y0027702D01*
X0059805Y0032365D01*
X0060337Y0032365D01*
X0061274Y0033303D01*
X0061274Y0038959D01*
X0060337Y0039896D01*
X0055074Y0039896D01*
X0054359Y0039181D01*
X0053666Y0039874D01*
X0053848Y0039874D01*
X0054306Y0039997D01*
X0054716Y0040234D01*
X0054934Y0040451D01*
X0055310Y0040074D01*
X0060967Y0040074D01*
X0061904Y0041011D01*
X0061904Y0041543D01*
X0064599Y0041543D01*
X0068991Y0037151D01*
X0068991Y0031993D01*
X0075653Y0025331D01*
X0075280Y0024429D01*
X0075280Y0022321D01*
X0076086Y0020373D01*
X0077577Y0018882D01*
X0079525Y0018075D01*
X0081634Y0018075D01*
X0083582Y0018882D01*
X0085073Y0020373D01*
X0085415Y0021198D01*
X0085507Y0021106D01*
X0104943Y0021106D01*
X0105880Y0022043D01*
X0105880Y0027305D01*
X0104943Y0028243D01*
X0085507Y0028243D01*
X0084570Y0027305D01*
X0084570Y0026880D01*
X0083582Y0027868D01*
X0082636Y0028260D01*
X0082691Y0028278D01*
X0083462Y0028671D01*
X0084163Y0029180D01*
X0084630Y0029647D01*
X0084730Y0029474D01*
X0085065Y0029139D01*
X0085475Y0028902D01*
X0085933Y0028780D01*
X0095041Y0028780D01*
X0095041Y0032364D01*
X0095409Y0032364D01*
X0095409Y0028780D01*
X0104517Y0028780D01*
X0104975Y0028902D01*
X0105386Y0029139D01*
X0105721Y0029474D01*
X0105958Y0029885D01*
X0106080Y0030343D01*
X0106080Y0032364D01*
X0095410Y0032364D01*
X0095410Y0032732D01*
X0106080Y0032732D01*
X0106080Y0034754D01*
X0105958Y0035211D01*
X0105721Y0035622D01*
X0105386Y0035957D01*
X0104975Y0036194D01*
X0104517Y0036317D01*
X0095409Y0036317D01*
X0095409Y0032732D01*
X0095041Y0032732D01*
X0095041Y0036317D01*
X0085933Y0036317D01*
X0085475Y0036194D01*
X0085352Y0036123D01*
X0085284Y0036257D01*
X0084775Y0036958D01*
X0084163Y0037570D01*
X0083462Y0038079D01*
X0082691Y0038472D01*
X0081867Y0038739D01*
X0081012Y0038875D01*
X0080780Y0038875D01*
X0080780Y0033575D01*
X0080380Y0033575D01*
X0080380Y0038875D01*
X0080147Y0038875D01*
X0079292Y0038739D01*
X0078468Y0038472D01*
X0077697Y0038079D01*
X0076997Y0037570D01*
X0076384Y0036958D01*
X0075876Y0036257D01*
X0075482Y0035486D01*
X0075215Y0034663D01*
X0075080Y0033808D01*
X0075080Y0033575D01*
X0080379Y0033575D01*
X0080379Y0033175D01*
X0075080Y0033175D01*
X0075080Y0032942D01*
X0075215Y0032087D01*
X0075397Y0031527D01*
X0073191Y0033733D01*
X0073191Y0038890D01*
X0071961Y0040120D01*
X0066339Y0045743D01*
X0061904Y0045743D01*
X0061904Y0046274D01*
X0060967Y0047211D01*
X0055310Y0047211D01*
X0054934Y0046834D01*
X0054716Y0047051D01*
X0054306Y0047288D01*
X0053848Y0047411D01*
X0051630Y0047411D01*
X0051630Y0043827D01*
X0051261Y0043827D01*
X0051261Y0043458D01*
X0047480Y0043458D01*
X0047480Y0041437D01*
X0047603Y0040979D01*
X0047840Y0040569D01*
X0048175Y0040234D01*
X0048586Y0039997D01*
X0048961Y0039896D01*
X0048381Y0039896D01*
X0047444Y0038959D01*
X0047444Y0038211D01*
X0046813Y0038211D01*
X0046813Y0038396D01*
X0045530Y0039680D01*
X0040960Y0039680D01*
X0039792Y0038512D01*
X0038743Y0039562D01*
X0038743Y0040043D01*
X0039274Y0040043D01*
X0039651Y0040419D01*
X0039868Y0040202D01*
X0040278Y0039965D01*
X0040736Y0039843D01*
X0042954Y0039843D01*
X0042954Y0043427D01*
X0043323Y0043427D01*
X0043323Y0043795D01*
X0047104Y0043795D01*
X0047104Y0045816D01*
X0046981Y0046274D01*
X0046744Y0046685D01*
X0046409Y0047020D01*
X0045999Y0047257D01*
X0045541Y0047380D01*
X0043323Y0047380D01*
X0043323Y0043795D01*
X0042954Y0043795D01*
X0042954Y0047380D01*
X0040736Y0047380D01*
X0040278Y0047257D01*
X0039868Y0047020D01*
X0039651Y0046803D01*
X0039274Y0047180D01*
X0033618Y0047180D01*
X0032680Y0046242D01*
X0032680Y0040980D01*
X0033618Y0040043D01*
X0034543Y0040043D01*
X0034543Y0039680D01*
X0034054Y0039680D01*
X0032771Y0038396D01*
X0032771Y0036125D01*
X0026964Y0036104D01*
X0027554Y0037528D01*
X0027554Y0039300D01*
X0026875Y0040937D01*
X0025622Y0042190D01*
X0023985Y0042868D01*
X0022213Y0042868D01*
X0020576Y0042190D01*
X0019323Y0040937D01*
X0018645Y0039300D01*
X0018533Y0039431D02*
X0018533Y0039431D01*
X0018800Y0040600D02*
X0019183Y0040600D01*
X0019165Y0042198D02*
X0020595Y0042198D01*
X0019200Y0042351D02*
X0019200Y0042351D01*
X0018870Y0043797D02*
X0032680Y0043797D01*
X0032680Y0045395D02*
X0018435Y0045395D01*
X0018533Y0045272D02*
X0018533Y0045272D01*
X0017160Y0046994D02*
X0033432Y0046994D01*
X0039460Y0046994D02*
X0039842Y0046994D01*
X0042954Y0046994D02*
X0043323Y0046994D01*
X0046435Y0046994D02*
X0048117Y0046994D01*
X0048175Y0047051D02*
X0047840Y0046716D01*
X0047603Y0046306D01*
X0047480Y0045848D01*
X0047480Y0043827D01*
X0051261Y0043827D01*
X0051261Y0047411D01*
X0049043Y0047411D01*
X0048586Y0047288D01*
X0048175Y0047051D01*
X0047480Y0045395D02*
X0047104Y0045395D01*
X0043323Y0045395D02*
X0042954Y0045395D01*
X0042954Y0043797D02*
X0043323Y0043797D01*
X0043323Y0043427D02*
X0047104Y0043427D01*
X0047104Y0041406D01*
X0046981Y0040948D01*
X0046744Y0040537D01*
X0046409Y0040202D01*
X0045999Y0039965D01*
X0045541Y0039843D01*
X0043323Y0039843D01*
X0043323Y0043427D01*
X0047104Y0043797D02*
X0051261Y0043797D01*
X0051261Y0045395D02*
X0051630Y0045395D01*
X0051630Y0046994D02*
X0051261Y0046994D01*
X0054774Y0046994D02*
X0055093Y0046994D01*
X0061184Y0046994D02*
X0123827Y0046994D01*
X0123053Y0046746D02*
X0108342Y0046746D01*
X0107405Y0045809D01*
X0107405Y0038184D01*
X0108342Y0037247D01*
X0123053Y0037247D01*
X0123991Y0038184D01*
X0123991Y0045809D01*
X0123053Y0046746D01*
X0123991Y0045395D02*
X0123997Y0045395D01*
X0123991Y0043797D02*
X0123997Y0043797D01*
X0123991Y0042198D02*
X0123997Y0042198D01*
X0123991Y0040600D02*
X0123997Y0040600D01*
X0123991Y0039001D02*
X0123997Y0039001D01*
X0123997Y0037403D02*
X0123209Y0037403D01*
X0123997Y0035804D02*
X0105538Y0035804D01*
X0106080Y0034206D02*
X0123997Y0034206D01*
X0123997Y0032607D02*
X0095410Y0032607D01*
X0095409Y0031009D02*
X0095041Y0031009D01*
X0095041Y0029410D02*
X0095409Y0029410D01*
X0095409Y0034206D02*
X0095041Y0034206D01*
X0095041Y0035804D02*
X0095409Y0035804D01*
X0084330Y0037403D02*
X0108187Y0037403D01*
X0107405Y0039001D02*
X0073081Y0039001D01*
X0073191Y0037403D02*
X0076829Y0037403D01*
X0075645Y0035804D02*
X0073191Y0035804D01*
X0073191Y0034206D02*
X0075143Y0034206D01*
X0075133Y0032607D02*
X0074317Y0032607D01*
X0069976Y0031009D02*
X0059805Y0031009D01*
X0060578Y0032607D02*
X0068991Y0032607D01*
X0068991Y0034206D02*
X0061274Y0034206D01*
X0061274Y0035804D02*
X0068991Y0035804D01*
X0068739Y0037403D02*
X0061274Y0037403D01*
X0061232Y0039001D02*
X0067141Y0039001D01*
X0065542Y0040600D02*
X0061492Y0040600D01*
X0068285Y0043797D02*
X0107405Y0043797D01*
X0107405Y0045395D02*
X0066686Y0045395D01*
X0069884Y0042198D02*
X0107405Y0042198D01*
X0107405Y0040600D02*
X0071482Y0040600D01*
X0080380Y0037403D02*
X0080780Y0037403D01*
X0080780Y0035804D02*
X0080380Y0035804D01*
X0080380Y0034206D02*
X0080780Y0034206D01*
X0084393Y0029410D02*
X0084794Y0029410D01*
X0085076Y0027812D02*
X0083638Y0027812D01*
X0075356Y0024615D02*
X0071707Y0024615D01*
X0071707Y0026213D02*
X0074771Y0026213D01*
X0073173Y0027812D02*
X0059805Y0027812D01*
X0059805Y0029410D02*
X0071574Y0029410D01*
X0061630Y0026213D02*
X0061261Y0026213D01*
X0061261Y0024615D02*
X0061630Y0024615D01*
X0061630Y0023016D02*
X0061261Y0023016D01*
X0061261Y0021417D02*
X0061630Y0021417D01*
X0061630Y0019819D02*
X0061261Y0019819D01*
X0058695Y0019819D02*
X0050566Y0019819D01*
X0050802Y0018220D02*
X0066039Y0018220D01*
X0066039Y0019819D02*
X0064197Y0019819D01*
X0070239Y0019819D02*
X0076640Y0019819D01*
X0075654Y0021417D02*
X0071707Y0021417D01*
X0071707Y0023016D02*
X0075280Y0023016D01*
X0084519Y0019819D02*
X0108186Y0019819D01*
X0107405Y0018220D02*
X0081985Y0018220D01*
X0079174Y0018220D02*
X0072513Y0018220D01*
X0074277Y0016622D02*
X0107405Y0016622D01*
X0107405Y0015023D02*
X0074944Y0015023D01*
X0075092Y0013425D02*
X0107405Y0013425D01*
X0107405Y0011826D02*
X0074790Y0011826D01*
X0073904Y0010228D02*
X0123597Y0010228D01*
X0122598Y0008629D02*
X0071615Y0008629D01*
X0067969Y0008629D02*
X0042130Y0008629D01*
X0039878Y0008629D02*
X0039706Y0008629D01*
X0037454Y0008629D02*
X0014796Y0008629D01*
X0016666Y0009530D02*
X0016666Y0009530D01*
X0016666Y0009530D01*
X0017222Y0010228D02*
X0035452Y0010228D01*
X0034589Y0011826D02*
X0018497Y0011826D01*
X0018533Y0011872D02*
X0018533Y0011872D01*
X0008138Y0014792D02*
X0008140Y0014923D01*
X0008146Y0015055D01*
X0008156Y0015186D01*
X0008170Y0015317D01*
X0008188Y0015447D01*
X0008210Y0015576D01*
X0008235Y0015705D01*
X0008265Y0015833D01*
X0008299Y0015960D01*
X0008336Y0016087D01*
X0008377Y0016211D01*
X0008422Y0016335D01*
X0008471Y0016457D01*
X0008523Y0016578D01*
X0008579Y0016696D01*
X0008639Y0016814D01*
X0008702Y0016929D01*
X0008769Y0017042D01*
X0008839Y0017154D01*
X0008912Y0017263D01*
X0008988Y0017369D01*
X0009068Y0017474D01*
X0009151Y0017576D01*
X0009237Y0017675D01*
X0009326Y0017772D01*
X0009418Y0017866D01*
X0009513Y0017957D01*
X0009610Y0018046D01*
X0009710Y0018131D01*
X0009813Y0018213D01*
X0009918Y0018292D01*
X0010025Y0018368D01*
X0010135Y0018440D01*
X0010247Y0018509D01*
X0010361Y0018575D01*
X0010476Y0018637D01*
X0010594Y0018696D01*
X0010713Y0018751D01*
X0010834Y0018803D01*
X0010957Y0018850D01*
X0011081Y0018894D01*
X0011206Y0018935D01*
X0011332Y0018971D01*
X0011460Y0019004D01*
X0011588Y0019032D01*
X0011717Y0019057D01*
X0011847Y0019078D01*
X0011977Y0019095D01*
X0012108Y0019108D01*
X0012239Y0019117D01*
X0012370Y0019122D01*
X0012502Y0019123D01*
X0012633Y0019120D01*
X0012765Y0019113D01*
X0012896Y0019102D01*
X0013026Y0019087D01*
X0013156Y0019068D01*
X0013286Y0019045D01*
X0013414Y0019019D01*
X0013542Y0018988D01*
X0013669Y0018953D01*
X0013795Y0018915D01*
X0013919Y0018873D01*
X0014043Y0018827D01*
X0014164Y0018777D01*
X0014284Y0018724D01*
X0014403Y0018667D01*
X0014520Y0018607D01*
X0014634Y0018543D01*
X0014747Y0018475D01*
X0014858Y0018404D01*
X0014967Y0018330D01*
X0015073Y0018253D01*
X0015177Y0018172D01*
X0015278Y0018089D01*
X0015377Y0018002D01*
X0015473Y0017912D01*
X0015566Y0017819D01*
X0015657Y0017724D01*
X0015744Y0017626D01*
X0015829Y0017525D01*
X0015910Y0017422D01*
X0015988Y0017316D01*
X0016063Y0017208D01*
X0016135Y0017098D01*
X0016203Y0016986D01*
X0016268Y0016872D01*
X0016329Y0016755D01*
X0016387Y0016637D01*
X0016441Y0016517D01*
X0016492Y0016396D01*
X0016539Y0016273D01*
X0016582Y0016149D01*
X0016621Y0016024D01*
X0016657Y0015897D01*
X0016688Y0015769D01*
X0016716Y0015641D01*
X0016740Y0015512D01*
X0016760Y0015382D01*
X0016776Y0015251D01*
X0016788Y0015120D01*
X0016796Y0014989D01*
X0016800Y0014858D01*
X0016800Y0014726D01*
X0016796Y0014595D01*
X0016788Y0014464D01*
X0016776Y0014333D01*
X0016760Y0014202D01*
X0016740Y0014072D01*
X0016716Y0013943D01*
X0016688Y0013815D01*
X0016657Y0013687D01*
X0016621Y0013560D01*
X0016582Y0013435D01*
X0016539Y0013311D01*
X0016492Y0013188D01*
X0016441Y0013067D01*
X0016387Y0012947D01*
X0016329Y0012829D01*
X0016268Y0012712D01*
X0016203Y0012598D01*
X0016135Y0012486D01*
X0016063Y0012376D01*
X0015988Y0012268D01*
X0015910Y0012162D01*
X0015829Y0012059D01*
X0015744Y0011958D01*
X0015657Y0011860D01*
X0015566Y0011765D01*
X0015473Y0011672D01*
X0015377Y0011582D01*
X0015278Y0011495D01*
X0015177Y0011412D01*
X0015073Y0011331D01*
X0014967Y0011254D01*
X0014858Y0011180D01*
X0014747Y0011109D01*
X0014635Y0011041D01*
X0014520Y0010977D01*
X0014403Y0010917D01*
X0014284Y0010860D01*
X0014164Y0010807D01*
X0014043Y0010757D01*
X0013919Y0010711D01*
X0013795Y0010669D01*
X0013669Y0010631D01*
X0013542Y0010596D01*
X0013414Y0010565D01*
X0013286Y0010539D01*
X0013156Y0010516D01*
X0013026Y0010497D01*
X0012896Y0010482D01*
X0012765Y0010471D01*
X0012633Y0010464D01*
X0012502Y0010461D01*
X0012370Y0010462D01*
X0012239Y0010467D01*
X0012108Y0010476D01*
X0011977Y0010489D01*
X0011847Y0010506D01*
X0011717Y0010527D01*
X0011588Y0010552D01*
X0011460Y0010580D01*
X0011332Y0010613D01*
X0011206Y0010649D01*
X0011081Y0010690D01*
X0010957Y0010734D01*
X0010834Y0010781D01*
X0010713Y0010833D01*
X0010594Y0010888D01*
X0010476Y0010947D01*
X0010361Y0011009D01*
X0010247Y0011075D01*
X0010135Y0011144D01*
X0010025Y0011216D01*
X0009918Y0011292D01*
X0009813Y0011371D01*
X0009710Y0011453D01*
X0009610Y0011538D01*
X0009513Y0011627D01*
X0009418Y0011718D01*
X0009326Y0011812D01*
X0009237Y0011909D01*
X0009151Y0012008D01*
X0009068Y0012110D01*
X0008988Y0012215D01*
X0008912Y0012321D01*
X0008839Y0012430D01*
X0008769Y0012542D01*
X0008702Y0012655D01*
X0008639Y0012770D01*
X0008579Y0012888D01*
X0008523Y0013006D01*
X0008471Y0013127D01*
X0008422Y0013249D01*
X0008377Y0013373D01*
X0008336Y0013497D01*
X0008299Y0013624D01*
X0008265Y0013751D01*
X0008235Y0013879D01*
X0008210Y0014008D01*
X0008188Y0014137D01*
X0008170Y0014267D01*
X0008156Y0014398D01*
X0008146Y0014529D01*
X0008140Y0014661D01*
X0008138Y0014792D01*
X0009348Y0008629D02*
X0010143Y0008629D01*
X0039706Y0010228D02*
X0039878Y0010228D01*
X0039878Y0011826D02*
X0039706Y0011826D01*
X0039706Y0013425D02*
X0039878Y0013425D01*
X0039878Y0015023D02*
X0039706Y0015023D01*
X0039706Y0016622D02*
X0039878Y0016622D01*
X0039878Y0018220D02*
X0039706Y0018220D01*
X0042805Y0018220D02*
X0043138Y0018220D01*
X0041540Y0019819D02*
X0040329Y0019819D01*
X0051069Y0016622D02*
X0065308Y0016622D01*
X0064641Y0015023D02*
X0050606Y0015023D01*
X0048586Y0013425D02*
X0064492Y0013425D01*
X0064795Y0011826D02*
X0044995Y0011826D01*
X0044133Y0010228D02*
X0065680Y0010228D01*
X0046353Y0013425D02*
X0045292Y0013425D01*
X0053521Y0021417D02*
X0057677Y0021417D01*
X0057677Y0023016D02*
X0055120Y0023016D01*
X0056718Y0024615D02*
X0057677Y0024615D01*
X0055606Y0029441D02*
X0051573Y0025409D01*
X0051573Y0026111D01*
X0047411Y0026111D01*
X0051573Y0026111D01*
X0051573Y0027431D01*
X0051450Y0027888D01*
X0051342Y0028075D01*
X0051373Y0028106D01*
X0051373Y0031597D01*
X0050604Y0032365D01*
X0053644Y0032365D01*
X0054359Y0033081D01*
X0055074Y0032365D01*
X0055606Y0032365D01*
X0055606Y0029441D01*
X0055574Y0029410D02*
X0051373Y0029410D01*
X0051373Y0031009D02*
X0055606Y0031009D01*
X0054833Y0032607D02*
X0053886Y0032607D01*
X0053976Y0027812D02*
X0051471Y0027812D01*
X0051573Y0026213D02*
X0052377Y0026213D01*
X0047411Y0026111D02*
X0047411Y0026111D01*
X0038565Y0026213D02*
X0027357Y0026213D01*
X0027357Y0027812D02*
X0033506Y0027812D01*
X0033211Y0029410D02*
X0027357Y0029410D01*
X0027357Y0031009D02*
X0033211Y0031009D01*
X0033957Y0033729D02*
X0036339Y0036111D01*
X0032771Y0037403D02*
X0027502Y0037403D01*
X0027554Y0039001D02*
X0033376Y0039001D01*
X0033060Y0040600D02*
X0027015Y0040600D01*
X0025604Y0042198D02*
X0032680Y0042198D01*
X0039303Y0039001D02*
X0040281Y0039001D01*
X0042954Y0040600D02*
X0043323Y0040600D01*
X0043323Y0042198D02*
X0042954Y0042198D01*
X0046780Y0040600D02*
X0047822Y0040600D01*
X0047480Y0042198D02*
X0047104Y0042198D01*
X0047486Y0039001D02*
X0046209Y0039001D01*
X0033957Y0033729D02*
X0023099Y0033690D01*
X0018842Y0034206D02*
X0017809Y0034206D01*
X0017809Y0035804D02*
X0019410Y0035804D01*
X0016666Y0037089D02*
X0016666Y0037089D01*
X0016666Y0037089D01*
X0016916Y0037403D02*
X0018697Y0037403D01*
X0018842Y0032607D02*
X0017809Y0032607D01*
X0017809Y0031009D02*
X0018842Y0031009D01*
X0018842Y0029410D02*
X0017809Y0029410D01*
X0017809Y0027812D02*
X0018842Y0027812D01*
X0018842Y0026213D02*
X0017809Y0026213D01*
X0017809Y0024615D02*
X0018678Y0024615D01*
X0018642Y0023016D02*
X0017809Y0023016D01*
X0016666Y0047613D02*
X0016666Y0047613D01*
X0014633Y0048592D02*
X0123113Y0048592D01*
X0121400Y0050191D02*
X0010547Y0050191D01*
X0010305Y0048592D02*
X0008833Y0048592D01*
X0105656Y0029410D02*
X0123997Y0029410D01*
X0123997Y0027812D02*
X0105374Y0027812D01*
X0105880Y0026213D02*
X0123997Y0026213D01*
X0123997Y0024615D02*
X0105880Y0024615D01*
X0105880Y0023016D02*
X0123997Y0023016D01*
X0123997Y0021417D02*
X0105255Y0021417D01*
X0123209Y0019819D02*
X0123997Y0019819D01*
X0123991Y0018220D02*
X0123997Y0018220D01*
X0123991Y0016622D02*
X0123997Y0016622D01*
X0123991Y0015023D02*
X0123997Y0015023D01*
X0123991Y0013425D02*
X0123997Y0013425D01*
X0123997Y0031009D02*
X0106080Y0031009D01*
D18*
X0095225Y0032548D03*
X0095225Y0024674D03*
D19*
X0115698Y0015225D03*
X0115698Y0041997D03*
D20*
X0080580Y0033375D03*
X0080580Y0023375D03*
X0069792Y0013611D03*
X0039792Y0013611D03*
D21*
X0061446Y0023611D03*
X0068139Y0023611D03*
X0057706Y0036131D03*
X0051013Y0036131D03*
D22*
X0047411Y0029851D03*
X0047411Y0026111D03*
X0047411Y0022371D03*
X0037174Y0022371D03*
X0037174Y0029851D03*
D23*
X0037135Y0030146D01*
X0037135Y0036544D01*
X0036339Y0036111D01*
X0036643Y0036544D01*
X0036643Y0043434D01*
X0036446Y0043611D01*
X0043245Y0036111D02*
X0050993Y0036111D01*
X0051013Y0036131D01*
X0057706Y0036131D02*
X0057706Y0028572D01*
X0051406Y0022272D01*
X0047509Y0022272D01*
X0047411Y0022371D01*
X0042056Y0022272D02*
X0047469Y0016859D01*
X0042056Y0022272D02*
X0037627Y0022272D01*
X0037174Y0022371D01*
X0047411Y0026111D02*
X0049339Y0026111D01*
X0053375Y0030146D01*
X0047411Y0029851D02*
X0046977Y0029654D01*
X0044517Y0029654D01*
X0042056Y0027194D01*
X0068139Y0023611D02*
X0068139Y0015383D01*
X0069615Y0013906D01*
X0069792Y0013611D01*
X0080580Y0023375D02*
X0071091Y0032863D01*
X0071091Y0038020D01*
X0065469Y0043643D01*
X0058139Y0043643D01*
X0094398Y0023847D02*
X0095225Y0024674D01*
X0094398Y0023847D02*
X0091564Y0023847D01*
X0091091Y0023375D01*
X0080580Y0023375D01*
D24*
X0053375Y0030146D03*
X0042056Y0027194D03*
X0047469Y0016859D03*
M02*
