G75*
%MOIN*%
%OFA0B0*%
%FSLAX25Y25*%
%IPPOS*%
%LPD*%
%AMOC8*
5,1,8,0,0,1.08239X$1,22.5*
%
%ADD10R,0.05131X0.04737*%
%ADD11C,0.01421*%
%ADD12C,0.06509*%
%ADD13R,0.06115X0.02375*%
%ADD14R,0.08280X0.06706*%
%ADD15C,0.05918*%
%ADD16R,0.18910X0.04737*%
%ADD17R,0.14186X0.07099*%
%ADD18C,0.08200*%
%ADD19R,0.04737X0.05131*%
%ADD20R,0.05524X0.02965*%
%ADD21C,0.04800*%
D10*
X0036446Y0043611D03*
X0043139Y0043611D03*
X0051446Y0043643D03*
X0058139Y0043643D03*
D11*
X0041587Y0037769D02*
X0041587Y0034453D01*
X0041587Y0037769D02*
X0044903Y0037769D01*
X0044903Y0034453D01*
X0041587Y0034453D01*
X0041587Y0035873D02*
X0044903Y0035873D01*
X0044903Y0037293D02*
X0041587Y0037293D01*
X0034681Y0037769D02*
X0034681Y0034453D01*
X0034681Y0037769D02*
X0037997Y0037769D01*
X0037997Y0034453D01*
X0034681Y0034453D01*
X0034681Y0035873D02*
X0037997Y0035873D01*
X0037997Y0037293D02*
X0034681Y0037293D01*
D12*
X0023099Y0038414D03*
X0023099Y0018729D03*
D13*
X0023099Y0023454D03*
X0023099Y0026013D03*
X0023099Y0028572D03*
X0023099Y0031131D03*
X0023099Y0033690D03*
D14*
X0012469Y0032509D03*
X0012469Y0024635D03*
D15*
X0012469Y0014792D03*
X0012469Y0042351D03*
D16*
X0095225Y0032548D03*
X0095225Y0024674D03*
D17*
X0115698Y0015225D03*
X0115698Y0041997D03*
D18*
X0080580Y0033375D03*
X0080580Y0023375D03*
X0069792Y0013611D03*
X0039792Y0013611D03*
D19*
X0061446Y0023611D03*
X0068139Y0023611D03*
X0057706Y0036131D03*
X0051013Y0036131D03*
D20*
X0047411Y0029851D03*
X0047411Y0026111D03*
X0047411Y0022371D03*
X0037174Y0022371D03*
X0037174Y0029851D03*
D21*
X0042056Y0027194D03*
X0053375Y0030146D03*
X0054469Y0019859D03*
M02*
