G75*
%MOIN*%
%OFA0B0*%
%FSLAX25Y25*%
%IPPOS*%
%LPD*%
%AMOC8*
5,1,8,0,0,1.08239X$1,22.5*
%
%ADD10C,0.00600*%
%ADD11C,0.00400*%
%ADD12C,0.00500*%
%ADD13C,0.00800*%
%ADD14C,0.01000*%
%ADD15R,0.00100X0.00100*%
%ADD16R,0.00400X0.00100*%
%ADD17R,0.00300X0.00100*%
%ADD18R,0.00600X0.00100*%
%ADD19R,0.00900X0.00100*%
%ADD20R,0.00800X0.00100*%
%ADD21R,0.01000X0.00100*%
%ADD22R,0.01100X0.00100*%
%ADD23R,0.01900X0.00100*%
%ADD24R,0.01800X0.00100*%
%ADD25R,0.02100X0.00100*%
%ADD26R,0.02000X0.00100*%
%ADD27R,0.02200X0.00100*%
%ADD28R,0.02300X0.00100*%
%ADD29R,0.02700X0.00100*%
%ADD30R,0.02800X0.00100*%
%ADD31R,0.02600X0.00100*%
%ADD32R,0.02900X0.00100*%
%ADD33R,0.05100X0.00100*%
%ADD34R,0.04900X0.00100*%
%ADD35R,0.05300X0.00100*%
%ADD36R,0.05500X0.00100*%
%ADD37R,0.05700X0.00100*%
%ADD38R,0.05900X0.00100*%
%ADD39R,0.01400X0.00100*%
%ADD40R,0.01300X0.00100*%
%ADD41R,0.01200X0.00100*%
%ADD42R,0.01700X0.00100*%
%ADD43R,0.01500X0.00100*%
%ADD44R,0.00200X0.00100*%
D10*
X0064272Y0022209D02*
X0065312Y0022209D01*
X0065312Y0025013D02*
X0064272Y0025013D01*
X0054879Y0034729D02*
X0053839Y0034729D01*
X0053839Y0037532D02*
X0054879Y0037532D01*
X0084237Y0044366D02*
X0088507Y0044366D01*
X0086912Y0014918D02*
X0086912Y0010648D01*
X0084777Y0012783D02*
X0089047Y0012783D01*
D11*
X0055406Y0041942D02*
X0054178Y0041942D01*
X0054178Y0045292D02*
X0055406Y0045292D01*
X0040406Y0045312D02*
X0039178Y0045312D01*
X0039178Y0041961D02*
X0040406Y0041961D01*
D12*
X0045304Y0040855D02*
X0034280Y0040855D01*
X0046042Y0037986D02*
X0046042Y0034236D01*
X0050422Y0032981D02*
X0058296Y0032981D01*
X0058296Y0039280D02*
X0050422Y0039280D01*
X0049280Y0040887D02*
X0060304Y0040887D01*
X0060304Y0046398D02*
X0049280Y0046398D01*
X0045304Y0046367D02*
X0034280Y0046367D01*
X0060855Y0026761D02*
X0068729Y0026761D01*
X0068729Y0020461D02*
X0060855Y0020461D01*
D13*
X0044792Y0013611D02*
X0043792Y0013611D01*
X0044792Y0013611D02*
X0044792Y0016611D01*
X0064792Y0016611D01*
X0064792Y0013611D01*
X0065792Y0013611D01*
X0064792Y0013611D02*
X0064792Y0010611D01*
X0044792Y0010611D01*
X0044792Y0013611D01*
X0043983Y0021111D02*
X0040602Y0021111D01*
X0039502Y0025054D02*
X0039502Y0027168D01*
X0040602Y0031111D02*
X0043983Y0031111D01*
X0075580Y0030875D02*
X0075580Y0035875D01*
X0078080Y0038375D01*
X0083080Y0038375D01*
X0085580Y0035875D01*
X0085580Y0030875D01*
X0083080Y0028375D01*
X0085580Y0025875D01*
X0085580Y0020875D01*
X0083080Y0018375D01*
X0078080Y0018375D01*
X0075580Y0020875D01*
X0075580Y0025875D01*
X0078080Y0028375D01*
X0075580Y0030875D01*
X0092076Y0041209D02*
X0101918Y0041209D01*
X0101918Y0036485D01*
X0092076Y0041209D02*
X0092076Y0044359D01*
X0105855Y0044359D01*
X0121603Y0036485D02*
X0121603Y0020737D01*
X0105855Y0012863D02*
X0092076Y0012863D01*
X0092076Y0016013D01*
X0101918Y0016013D01*
X0101918Y0020737D01*
D14*
X0046292Y0019811D03*
D15*
X0062749Y0029559D03*
X0067149Y0029559D03*
X0062749Y0035459D03*
D16*
X0062699Y0035359D03*
X0062699Y0029659D03*
D17*
X0063749Y0029959D03*
X0066149Y0029959D03*
X0067149Y0029659D03*
X0067149Y0035359D03*
D18*
X0067099Y0035259D03*
X0062799Y0035259D03*
X0062799Y0029759D03*
X0067099Y0029759D03*
D19*
X0062749Y0029859D03*
X0062749Y0035159D03*
X0067149Y0035159D03*
D20*
X0067099Y0029859D03*
D21*
X0062799Y0029959D03*
D22*
X0067149Y0029959D03*
X0062849Y0035059D03*
X0064949Y0035859D03*
X0064949Y0035959D03*
X0064949Y0036059D03*
X0064949Y0036159D03*
D23*
X0066449Y0031159D03*
X0066449Y0031059D03*
X0066549Y0030959D03*
X0066549Y0030859D03*
X0066849Y0030159D03*
X0063449Y0031059D03*
X0063449Y0031159D03*
X0063349Y0030959D03*
X0063349Y0030859D03*
X0063049Y0030159D03*
X0063049Y0030059D03*
D24*
X0066799Y0030059D03*
D25*
X0066849Y0030259D03*
X0066849Y0030359D03*
X0066449Y0031259D03*
X0066449Y0031359D03*
X0066549Y0031659D03*
X0066649Y0031759D03*
X0063449Y0031359D03*
X0063449Y0031259D03*
X0063349Y0031659D03*
X0063249Y0031759D03*
X0063049Y0030359D03*
X0063049Y0030259D03*
X0063249Y0033259D03*
X0063349Y0033359D03*
X0066549Y0033359D03*
X0066649Y0033259D03*
X0064949Y0035059D03*
D26*
X0066599Y0030759D03*
X0066699Y0030659D03*
X0066699Y0030559D03*
X0066799Y0030459D03*
X0063299Y0030759D03*
X0063199Y0030659D03*
X0063199Y0030559D03*
X0063099Y0030459D03*
D27*
X0063399Y0031459D03*
X0063399Y0031559D03*
X0066499Y0031559D03*
D28*
X0066449Y0031459D03*
X0066849Y0031859D03*
X0066849Y0033159D03*
X0066449Y0033459D03*
X0063449Y0033459D03*
X0063049Y0033159D03*
X0063049Y0031859D03*
D29*
X0062749Y0031959D03*
X0062549Y0032459D03*
X0062749Y0033059D03*
X0064949Y0034959D03*
X0067149Y0033059D03*
X0067249Y0032859D03*
X0067249Y0032559D03*
X0067349Y0032459D03*
X0067249Y0032259D03*
X0067249Y0032159D03*
X0067149Y0031959D03*
D30*
X0067299Y0032059D03*
X0067299Y0032359D03*
X0067299Y0032659D03*
X0067299Y0032759D03*
X0062699Y0032959D03*
X0062599Y0032859D03*
X0062599Y0032759D03*
X0062599Y0032659D03*
X0062599Y0032559D03*
X0062599Y0032259D03*
X0062599Y0032159D03*
X0062599Y0032059D03*
D31*
X0062599Y0032359D03*
D32*
X0067249Y0032959D03*
D33*
X0064949Y0033559D03*
X0064949Y0033659D03*
X0064949Y0034059D03*
X0064949Y0034159D03*
D34*
X0064949Y0033959D03*
X0064949Y0033859D03*
X0064949Y0033759D03*
D35*
X0064949Y0034259D03*
D36*
X0064949Y0034359D03*
X0064949Y0034459D03*
D37*
X0064949Y0034559D03*
X0064949Y0034859D03*
D38*
X0064949Y0034759D03*
X0064949Y0034659D03*
D39*
X0062799Y0034959D03*
D40*
X0064949Y0035359D03*
X0064949Y0035459D03*
X0064949Y0035559D03*
X0064949Y0035659D03*
X0064949Y0035759D03*
X0067049Y0034959D03*
D41*
X0067099Y0035059D03*
D42*
X0064949Y0035159D03*
D43*
X0064949Y0035259D03*
D44*
X0067199Y0035459D03*
M02*
